<svg data-v-0dd9719b="" version="1.0" xmlns="http://www.w3.org/2000/svg" xmlns:xlink="http://www.w3.org/1999/xlink" width="100%" height="100%" viewBox="0 0 340.000000 250.000000" preserveAspectRatio="xMidYMid meet" color-interpolation-filters="sRGB" style="margin: auto;"> <rect data-v-0dd9719b="" x="0" y="0" width="100%" height="100%" fill="#fff" fill-opacity="1" class="background"></rect> <rect data-v-0dd9719b="" x="0" y="0" width="100%" height="100%" fill="url(#watermark)" fill-opacity="1" class="watermarklayer"></rect> <g data-v-0dd9719b="" fill="#0b56a6" class="icon-text-wrapper icon-svg-group iconsvg" transform="translate(49.46000671386719,98.21213340759277)"><g class="iconsvg-imagesvg" transform="translate(0,0)"><g><rect fill="#0b56a6" fill-opacity="0" stroke-width="2" x="0" y="0" width="60" height="53.57573376432035" class="image-rect"></rect> <svg x="0" y="0" width="60" height="53.57573376432035" filtersec="colorsb9797336053" class="image-svg-svg primary" style="overflow: visible;"><svg xmlns="http://www.w3.org/2000/svg" viewBox="0 -0.011434555053710938 424.6799621582031 379.20831298828125"><path d="M212.33 145.28a44.31 44.31 0 1 1-44.29 44.33 44.32 44.32 0 0 1 44.29-44.33z" fill="#da251d" fill-rule="evenodd"></path><path d="M307.2 25.47l-.05-.05c-14-8.06-37.41 1.17-64 22.66-29.28 23.64-60.88 61.71-87.94 108.54l-.07.14c-27 46.79-44.1 93.16-49.95 130.28-5.32 33.74-1.6 58.65 12.38 66.73 14 8.07 37.4-1.18 64-22.67 29.25-23.64 60.89-61.71 87.93-108.54 27-46.84 44.17-93.23 50-130.42 5.32-33.7 1.66-58.58-12.28-66.67zm-78.27 4.88c32.56-26.34 63.78-37 86.55-26.17h.27l2.72 1.56c23 13.28 30.27 46.66 23.47 89.87-6.14 39.06-23.69 87.23-51.25 135.57v.07l-1.57 2.72c-28.43 49.23-62 89.53-93.35 114.85-34 27.51-66.57 37.9-89.56 24.64-23-13.27-30.25-46.66-23.42-89.87 6.26-39.82 24.36-89 52.8-138.31v-.05c28.42-49.26 62-89.52 93.34-114.88z" fill="#0b56a6" fill-rule="evenodd"></path><path d="M401.86 189.61c0-16.17-19.69-31.82-51.49-44.08-35.08-13.48-83.86-21.85-138-21.85s-102.95 8.37-138 21.85c-31.88 12.26-51.58 27.91-51.58 44.08s19.68 31.81 51.5 44c35.07 13.5 83.85 21.85 138 21.85s103-8.35 138-21.85c31.8-12.23 51.49-27.89 51.49-44zm-43.39-65.28c40.91 15.76 66.21 38.72 66.21 65.28s-25.3 49.5-66.21 65.24c-37.65 14.49-89.34 23.45-146.14 23.45s-108.48-9-146.12-23.45C25.3 239.11 0 216.12 0 189.61s25.3-49.52 66.21-65.28c37.64-14.47 89.33-23.45 146.12-23.45s108.46 8.98 146.14 23.45z" fill="#0b56a6" fill-rule="evenodd"></path><path d="M307.1 353.77c14-8.08 17.7-33 12.38-66.73-5.84-37.12-23-83.49-49.93-130.28l-.09-.14c-27.05-46.83-58.66-84.87-87.91-108.54-26.57-21.47-50-30.72-64-22.66l-.82.49c-13.32 8.52-16.79 33.14-11.56 66.23 5.85 37.19 23 83.58 50 130.42 27 46.83 58.68 84.9 88 108.54 26.54 21.49 50 30.74 63.92 22.67zm34.84-70.18c6.8 43.21-.46 76.6-23.42 89.87s-55.58 2.89-89.61-24.64c-31.32-25.32-64.92-65.62-93.36-114.85l-1.57-2.72v-.07c-27.53-48.34-45.09-96.47-51.19-135.57-6.83-43.19.47-76.57 23.44-89.85.38-.22.77-.42 1.16-.63l1.59-.93h.24c22.78-10.8 54-.17 86.58 26.17 31.32 25.32 65 65.62 93.38 114.86v.05c28.39 49.29 46.5 98.49 52.76 138.31z" fill="#0b56a6" fill-rule="evenodd"></path></svg></svg> <!----></g></g> <g transform="translate(67,12.1278657913208)"><g data-gra="path-name" fill-rule="" class="tp-name iconsvg-namesvg"><g transform="scale(1)"><g><path d="M4.59 0.07L17.71 0.07 17.71 1.66 2.96 1.66 2.96-26.88 4.59-26.88 4.59 0.07ZM32.58 2.03L32.58 2.03Q29.25 2.03 26.68 0.15 24.11-1.74 22.67-5.08 21.22-8.43 21.22-12.61L21.22-12.61Q21.22-16.79 22.67-20.13 24.11-23.48 26.7-25.38 29.29-27.29 32.58-27.29L32.58-27.29Q35.87-27.29 38.46-25.38 41.04-23.48 42.49-20.13 43.93-16.79 43.93-12.61L43.93-12.61Q43.93-8.43 42.49-5.08 41.04-1.74 38.47 0.15 35.9 2.03 32.58 2.03ZM32.58 0.48L32.58 0.48Q35.42 0.48 37.64-1.16 39.86-2.81 41.08-5.79 42.3-8.76 42.3-12.61L42.3-12.61Q42.3-16.45 41.08-19.43 39.86-22.41 37.64-24.05 35.42-25.7 32.58-25.7L32.58-25.7Q29.73-25.7 27.53-24.05 25.33-22.41 24.11-19.43 22.89-16.45 22.89-12.61L22.89-12.61Q22.89-8.76 24.11-5.79 25.33-2.81 27.53-1.16 29.73 0.48 32.58 0.48ZM67.3-26.88L68.81-26.88 68.81 1.66 67.85 1.66 50.47-24.37 50.47 1.66 48.92 1.66 48.92-26.88 50.81-26.88 67.3-2.14 67.3-26.88ZM94.7-12.28L94.7-8.73Q94.7-3.99 92.33-0.98 89.96 2.03 85.16 2.03L85.16 2.03Q81.83 2.03 79.28 0.2 76.73-1.63 75.32-4.95 73.92-8.28 73.92-12.61L73.92-12.61Q73.92-16.94 75.32-20.26 76.73-23.59 79.28-25.44 81.83-27.29 85.16-27.29L85.16-27.29Q88.67-27.29 90.92-25.61 93.18-23.92 94.03-21.19L94.03-21.19 92.7-20.48Q91.07-25.7 85.16-25.7L85.16-25.7Q82.31-25.7 80.15-24.05 77.98-22.41 76.78-19.43 75.58-16.45 75.58-12.61L75.58-12.61Q75.58-8.76 76.78-5.79 77.98-2.81 80.15-1.16 82.31 0.48 85.16 0.48L85.16 0.48Q89.11 0.48 91.11-1.98 93.11-4.44 93.11-8.99L93.11-8.99 93.11-10.72 86.45-10.72 86.45-12.28 94.7-12.28ZM131.04-26.88L132.63-26.88 124.46 1.66 122.98 1.66 115.4-23.96 107.82 1.66 106.27 1.66 98.13-26.88 99.87-26.88 107.08-1.29 114.7-26.88 116.14-26.88 123.8-1.29 131.04-26.88ZM151.79-25.29L138.22-25.29 138.22-14.16 150.94-14.16 150.94-12.57 138.22-12.57 138.22 0.07 151.79 0.07 151.79 1.66 136.59 1.66 136.59-26.88 151.79-26.88 151.79-25.29ZM175.53-26.88L177.04-26.88 177.04 1.66 176.08 1.66 158.7-24.37 158.7 1.66 157.15 1.66 157.15-26.88 159.03-26.88 175.53-2.14 175.53-26.88Z" transform="translate(-2.9600000381469727, 27.290000915527344)"></path></g> <!----> <!----> <!----> <!----> <!----> <!----> <!----></g></g> <!----></g></g><defs v-gra="od"></defs></svg>